<?xml version="1.0" encoding="UTF-8"?><svg xmlns="http://www.w3.org/2000/svg" viewBox="0 0 325.77 340.66"><g id="a"/><g id="b"><g id="c"><g><polygon points="127.09 .25 99.46 85.29 27.88 .25 127.09 .25" style="fill:#1d604f;"/><polygon points="27.88 .25 99.46 85.29 .25 85.29 27.88 .25" style="fill:#174036;"/></g><g><polygon points="226.3 .25 198.67 85.29 127.09 .25 226.3 .25" style="fill:#44b495;"/><polygon points="127.09 .25 198.67 85.29 99.46 85.29 127.09 .25" style="fill:#44b495;"/></g><g><polygon points="325.52 .25 297.89 85.29 226.31 .25 325.52 .25" style="fill:#1d604f;"/><polygon points="226.31 .25 297.89 85.29 198.68 85.29 226.31 .25" style="fill:#174036;"/></g><g><polygon points="198.68 85.29 171.05 170.33 99.47 85.29 198.68 85.29" style="fill:#1d604f;"/><polygon points="99.47 85.29 171.05 170.33 71.84 170.33 99.47 85.29" style="fill:#44b495;"/></g><g><polygon points="171.05 170.33 143.42 255.37 71.84 170.33 171.05 170.33" style="fill:#44b495;"/><polygon points="71.84 170.33 143.42 255.37 44.21 255.37 71.84 170.33" style="fill:#174036;"/></g><g><polygon points="143.41 255.37 115.78 340.41 44.2 255.37 143.41 255.37" style="fill:#1d604f;"/><polygon points="44.2 255.37 115.78 340.41 16.57 340.41 44.2 255.37" style="fill:#44b495;"/></g><g><polygon points="242.63 255.36 171.05 170.32 270.26 170.32 242.63 255.36" style="fill:#1d604f;"/><polygon points="171.05 170.32 242.63 255.36 143.42 255.36 171.05 170.32" style="fill:#174036;"/></g></g></g></svg>